<?xml version="1.0" encoding="UTF-8" standalone="no"?>
<svg
   version="1.1"
   width="0.63671368in"
   height="0.48907465in"
   viewBox="0 0 45.843441 35.213446"
   id="svg4"
   xml:space="preserve"
   sodipodi:docname="VIAXIS-logo-1-2.svg"
   inkscape:version="1.4.3 (0d15f75, 2025-12-25)"
   xmlns:inkscape="http://www.inkscape.org/namespaces/inkscape"
   xmlns:sodipodi="http://sodipodi.sourceforge.net/DTD/sodipodi-0.dtd"
   xmlns="http://www.w3.org/2000/svg"
   xmlns:svg="http://www.w3.org/2000/svg"><sodipodi:namedview
     id="namedview1"
     pagecolor="#ffffff"
     bordercolor="#000000"
     borderopacity="0.25"
     inkscape:showpageshadow="2"
     inkscape:pageopacity="0.0"
     inkscape:pagecheckerboard="0"
     inkscape:deskcolor="#d1d1d1"
     inkscape:document-units="in"
     inkscape:zoom="0.45254834"
     inkscape:cx="5803.7999"
     inkscape:cy="1432.9961"
     inkscape:window-width="1366"
     inkscape:window-height="697"
     inkscape:window-x="-8"
     inkscape:window-y="595"
     inkscape:window-maximized="1"
     inkscape:current-layer="svg4"><inkscape:page
       x="0"
       y="1.2169215e-19"
       width="45.843441"
       height="35.213448"
       id="page2"
       margin="0"
       bleed="0" /></sodipodi:namedview><defs
     id="defs4"><linearGradient
       id="swatch5"
       inkscape:swatch="solid"><stop
         style="stop-color:#333333;stop-opacity:1;"
         offset="0"
         id="stop5" /></linearGradient></defs><path
     id="rect1"
     style="fill:#292a2d;stroke-width:1.22236"
     d="M 8.3048897,-30.666912 H 358.93049 c 13.2441,0 23.9063,4.014 23.9063,9 V 110.33329 c 0,4.986 -10.6622,9 -23.9063,9 H 8.3048897 c -13.2441,0 -23.9061997,-4.014 -23.9061997,-9 V -21.666912 c 0,-4.986 10.6620997,-9 23.9061997,-9 z" /><rect
     style="fill:#c32a30;stroke:#c32a30;stroke-width:1.0007;stroke-dasharray:none;stroke-opacity:1"
     id="rect81"
     width="44.842964"
     height="34.212715"
     x="0.50033039"
     y="0.50037616"
     ry="6.7590647"
     inkscape:export-filename="G:\Meu Drive\Viaxis Tech Hub\Logo\orcos-logo.svg"
     inkscape:export-xdpi="96"
     inkscape:export-ydpi="96" /><path
     d="m 23.60519,7.1865885 c -0.2479,0 -0.4933,0.01 -0.7368,0.026 l 2.2368,8.3466995 0.015,0.056 c 0.063,0.234 0.1514,0.5632 0.1905,0.8658 0.049,0.3813 0.06,0.9835 -0.2945,1.5981 -0.3548,0.6147 -0.8829,0.908 -1.2378,1.0562 -0.2815,0.1175 -0.6111,0.2042 -0.8452,0.2666 l -0.056,0.015 -8.3467,2.2368 c 1.6314,3.3675 5.0817,5.6895 9.0747,5.6895 5.566,0 10.0781,-4.5121 10.0781,-10.0781 0,-5.566 -4.5121,-10.0781995 -10.0781,-10.0781995 z"
     style="fill:#f9f9f9"
     id="path84" /><path
     d="m 19.57039,5.3883885 c -0.4098,-0.014 -0.8598,0.2097 -1.5805,0.5684 -0.7233,0.36 -1.4112,0.789 -2.0552,1.2832 -1.3125,1.0071 -2.4131,2.2646 -3.2402,3.6972995 -0.8272,1.4327 -1.3647,3.0136 -1.5806,4.6538 -0.106,0.8049 -0.1334,1.615 -0.084,2.4214 0.066,1.0714 0.098,1.6069 0.583,1.9556 0.4848,0.3488 1.076,0.1915 2.2559,-0.1246 l 7.3008,-1.957 c 1.1472,-0.3074 1.721,-0.4607 1.9819,-0.9126 0.2609,-0.4519 0.1067,-1.0266 -0.2007,-2.1738 l -1.9556,-7.2992995 c -0.3161,-1.1799 -0.4736,-1.7702 -1.018,-2.0157 -0.1361,-0.061 -0.2706,-0.092 -0.4073,-0.097 z"
     style="fill:#f9f9f9"
     id="path83" /></svg>
